<?xml version="1.0" encoding="iso-8859-1"?>
<!DOCTYPE svg PUBLIC "-//W3C//DTD SVG 1.1//EN" "http://www.w3.org/Graphics/SVG/1.1/DTD/svg11.dtd">
<svg xmlns="http://www.w3.org/2000/svg" xmlns:xlink="http://www.w3.org/1999/xlink" version="1.1" viewBox="0 0 297 297" enable-background="new 0 0 297 297" width="512px" height="512px">
  <g>
    <path d="m189.026,31.035c0-14.186-11.161-25.729-24.88-25.729-6.438,0-12.313,2.541-16.736,6.707-4.423-4.164-10.298-6.705-16.736-6.705-13.722,0-24.886,11.541-24.886,25.727 0,20.92 30.947,42.293 37.151,46.365 1.356,0.891 2.914,1.336 4.471,1.336 1.557,0 3.114-0.445 4.472-1.336 6.202-4.072 37.144-25.447 37.144-46.365zm-41.621,29.627c-11.507-8.434-25.322-21.697-25.322-29.627 0-5.201 3.854-9.432 8.591-9.432 4.735,0 8.589,4.231 8.589,9.432 0,4.5 3.647,8.148 8.147,8.148 4.499,0 8.147-3.648 8.147-8.148 0-5.201 3.853-9.432 8.589-9.432 4.733,0 8.584,4.231 8.584,9.432 0.001,7.901-13.819,21.176-25.325,29.627z" fill="#f6ea8c"/>
    <path d="m67.397,291.186c1.05,0.344 2.115,0.508 3.163,0.508 4.287,0 8.276-2.73 9.68-7.027 1.746-5.346-1.173-11.096-6.52-12.842l-20.531-6.705 17.549-54.207c2.945,0.438 5.918,0.668 8.902,0.668 26.488,0 49.791-17 57.98-42.299 7.033-21.721 10.148-45.344 8.771-66.512-0.27-4.156-3.042-7.729-7.002-9.02l-74.888-24.453c-3.973-1.299-8.338-0.035-11.005,3.186-13.509,16.316-24.821,37.264-31.855,58.984-9.316,28.775 3.857,59.555 29.734,73.121l-17.548,54.207-20.479-6.688c-5.344-1.744-11.096,1.172-12.843,6.518-1.746,5.348 1.173,11.098 6.52,12.844l60.372,19.717zm-2.448-200.315l61.382,20.041c0.131,9.631-0.735,19.717-2.527,29.766l-74.226-24.242c4.433-9.184 9.632-17.854 15.371-25.565zm14.691,100.34c-4.244,0-8.468-0.676-12.553-2.01-21.309-6.955-33.002-30.041-26.067-51.461 0.26-0.803 0.534-1.605 0.808-2.408l77.186,25.207c-0.253,0.826-0.506,1.65-0.77,2.469-5.464,16.869-20.976,28.203-38.604,28.203z" fill="#f6ea8c"/>
    <path d="m289.975,271.469c5.347-1.746 8.266-7.496 6.52-12.844-1.747-5.346-7.497-8.266-12.843-6.518l-20.479,6.688-17.548-54.207c25.877-13.566 39.051-44.346 29.734-73.123-7.034-21.719-18.347-42.666-31.856-58.982-2.665-3.219-7.032-4.482-11.005-3.186l-74.887,24.453c-3.96,1.291-6.732,4.863-7.002,9.02-1.377,21.168 1.737,44.791 8.771,66.512 8.19,25.301 31.49,42.299 57.98,42.299 2.984,0 5.957-0.229 8.902-0.668l17.549,54.207-20.531,6.705c-5.347,1.746-8.266,7.496-6.52,12.842 1.403,4.297 5.392,7.027 9.68,7.027 1.048,0 2.113-0.164 3.163-0.508l60.372-19.717zm-119.306-160.557l61.382-20.041c5.739,7.711 10.938,16.381 15.371,25.564l-74.226,24.242c-1.792-10.048-2.658-20.134-2.527-29.765zm8.089,52.096c-0.265-0.818-0.518-1.643-0.771-2.469l77.186-25.207c0.273,0.801 0.548,1.604 0.808,2.408 6.934,21.42-4.759,44.506-26.067,51.461-4.085,1.334-8.309,2.01-12.553,2.01-17.629,0-33.141-11.334-38.603-28.203z" fill="#f6ea8c"/>
  </g>
</svg>
